<svg width="120" height="120" viewBox="0 0 120 120" xmlns="http://www.w3.org/2000/svg">
  <!-- Grass block base -->
  <rect width="120" height="120" fill="#8B4513"/>
  
  <!-- Grass top layer -->
  <rect x="0" y="0" width="120" height="20" fill="#7CB342"/>
  
  <!-- Grass details -->
  <rect x="10" y="5" width="4" height="2" fill="#4CAF50"/>
  <rect x="25" y="3" width="3" height="2" fill="#4CAF50"/>
  <rect x="40" y="6" width="4" height="2" fill="#4CAF50"/>
  <rect x="55" y="4" width="3" height="2" fill="#4CAF50"/>
  <rect x="70" y="7" width="4" height="2" fill="#4CAF50"/>
  <rect x="85" y="5" width="3" height="2" fill="#4CAF50"/>
  <rect x="100" y="3" width="4" height="2" fill="#4CAF50"/>
  <rect x="115" y="6" width="3" height="2" fill="#4CAF50"/>
  
  <!-- Block shading -->
  <rect x="0" y="20" width="120" height="100" fill="#8B4513"/>
  <rect x="0" y="20" width="20" height="100" fill="#654321"/>
  
  <!-- SU Letters carved into the block - MORE SPACE, NO UNDERLINES -->
  <!-- S - Clear S shape, positioned left -->
  <rect x="20" y="35" width="8" height="8" fill="#654321"/>
  <rect x="28" y="35" width="8" height="8" fill="#654321"/>
  <rect x="36" y="35" width="8" height="8" fill="#654321"/>
  <rect x="44" y="35" width="8" height="8" fill="#654321"/>
  <rect x="20" y="43" width="8" height="8" fill="#654321"/>
  <rect x="20" y="51" width="8" height="8" fill="#654321"/>
  <rect x="28" y="51" width="8" height="8" fill="#654321"/>
  <rect x="36" y="51" width="8" height="8" fill="#654321"/>
  <rect x="44" y="59" width="8" height="8" fill="#654321"/>
  <rect x="36" y="67" width="8" height="8" fill="#654321"/>
  <rect x="28" y="67" width="8" height="8" fill="#654321"/>
  <rect x="20" y="67" width="8" height="8" fill="#654321"/>
  <rect x="20" y="75" width="8" height="8" fill="#654321"/>
  <rect x="28" y="75" width="8" height="8" fill="#654321"/>
  <rect x="36" y="75" width="8" height="8" fill="#654321"/>
  <rect x="44" y="75" width="8" height="8" fill="#654321"/>
  
  <!-- U - Proper U shape with bottom curve, positioned right with more space -->
  <rect x="70" y="35" width="8" height="8" fill="#654321"/>
  <rect x="70" y="43" width="8" height="8" fill="#654321"/>
  <rect x="70" y="51" width="8" height="8" fill="#654321"/>
  <rect x="70" y="59" width="8" height="8" fill="#654321"/>
  <rect x="70" y="67" width="8" height="8" fill="#654321"/>
  <rect x="78" y="67" width="8" height="8" fill="#654321"/>
  <rect x="86" y="67" width="8" height="8" fill="#654321"/>
  <rect x="94" y="67" width="8" height="8" fill="#654321"/>
  <rect x="102" y="67" width="8" height="8" fill="#654321"/>
  <rect x="102" y="59" width="8" height="8" fill="#654321"/>
  <rect x="102" y="51" width="8" height="8" fill="#654321"/>
  <rect x="102" y="43" width="8" height="8" fill="#654321"/>
  <rect x="102" y="35" width="8" height="8" fill="#654321"/>
  <!-- Bottom curve of U -->
  <rect x="78" y="75" width="8" height="8" fill="#654321"/>
  <rect x="86" y="75" width="8" height="8" fill="#654321"/>
  <rect x="94" y="75" width="8" height="8" fill="#654321"/>
  
  <!-- Block highlights -->
  <rect x="20" y="20" width="100" height="4" fill="#A0522D"/>
  <rect x="20" y="24" width="4" height="96" fill="#A0522D"/>
</svg> 