<svg width="120" height="120" viewBox="0 0 120 120" xmlns="http://www.w3.org/2000/svg">
  <!-- Grass block base -->
  <rect width="120" height="120" fill="#8B4513"/>
  
  <!-- Grass top layer -->
  <rect x="0" y="0" width="120" height="20" fill="#7CB342"/>
  
  <!-- Grass details -->
  <rect x="10" y="5" width="4" height="2" fill="#4CAF50"/>
  <rect x="25" y="3" width="3" height="2" fill="#4CAF50"/>
  <rect x="40" y="6" width="4" height="2" fill="#4CAF50"/>
  <rect x="55" y="4" width="3" height="2" fill="#4CAF50"/>
  <rect x="70" y="7" width="4" height="2" fill="#4CAF50"/>
  <rect x="85" y="5" width="3" height="2" fill="#4CAF50"/>
  <rect x="100" y="3" width="4" height="2" fill="#4CAF50"/>
  <rect x="115" y="6" width="3" height="2" fill="#4CAF50"/>
  
  <!-- Block shading -->
  <rect x="0" y="20" width="120" height="100" fill="#8B4513"/>
  <rect x="0" y="20" width="20" height="100" fill="#654321"/>
  
  <!-- SU Letters carved into the block -->
  <!-- S -->
  <rect x="35" y="45" width="4" height="4" fill="#654321"/>
  <rect x="39" y="45" width="4" height="4" fill="#654321"/>
  <rect x="43" y="45" width="4" height="4" fill="#654321"/>
  <rect x="47" y="45" width="4" height="4" fill="#654321"/>
  <rect x="35" y="49" width="4" height="4" fill="#654321"/>
  <rect x="35" y="53" width="4" height="4" fill="#654321"/>
  <rect x="39" y="53" width="4" height="4" fill="#654321"/>
  <rect x="43" y="53" width="4" height="4" fill="#654321"/>
  <rect x="47" y="57" width="4" height="4" fill="#654321"/>
  <rect x="43" y="61" width="4" height="4" fill="#654321"/>
  <rect x="39" y="61" width="4" height="4" fill="#654321"/>
  <rect x="35" y="61" width="4" height="4" fill="#654321"/>
  <rect x="35" y="65" width="4" height="4" fill="#654321"/>
  <rect x="39" y="65" width="4" height="4" fill="#654321"/>
  <rect x="43" y="65" width="4" height="4" fill="#654321"/>
  <rect x="47" y="65" width="4" height="4" fill="#654321"/>
  
  <!-- U -->
  <rect x="55" y="45" width="4" height="4" fill="#654321"/>
  <rect x="55" y="49" width="4" height="4" fill="#654321"/>
  <rect x="55" y="53" width="4" height="4" fill="#654321"/>
  <rect x="55" y="57" width="4" height="4" fill="#654321"/>
  <rect x="55" y="61" width="4" height="4" fill="#654321"/>
  <rect x="59" y="61" width="4" height="4" fill="#654321"/>
  <rect x="63" y="61" width="4" height="4" fill="#654321"/>
  <rect x="67" y="61" width="4" height="4" fill="#654321"/>
  <rect x="71" y="61" width="4" height="4" fill="#654321"/>
  <rect x="71" y="57" width="4" height="4" fill="#654321"/>
  <rect x="71" y="53" width="4" height="4" fill="#654321"/>
  <rect x="71" y="49" width="4" height="4" fill="#654321"/>
  <rect x="71" y="45" width="4" height="4" fill="#654321"/>
  <rect x="59" y="45" width="4" height="4" fill="#654321"/>
  <rect x="63" y="45" width="4" height="4" fill="#654321"/>
  <rect x="67" y="45" width="4" height="4" fill="#654321"/>
  
  <!-- Block highlights -->
  <rect x="20" y="20" width="100" height="4" fill="#A0522D"/>
  <rect x="20" y="24" width="4" height="96" fill="#A0522D"/>
</svg> 