<svg width="200" height="200" viewBox="0 0 200 200" xmlns="http://www.w3.org/2000/svg">
  <!-- Background -->
  <rect width="200" height="200" fill="#E8F5E8"/>
  
  <!-- Minecraft-style players -->
  <!-- Player 1 -->
  <rect x="40" y="80" width="20" height="30" fill="#8B4513"/> <!-- Body -->
  <rect x="42" y="60" width="16" height="20" fill="#FFB74D"/> <!-- Head -->
  <rect x="44" y="65" width="4" height="4" fill="#000000"/> <!-- Eye 1 -->
  <rect x="52" y="65" width="4" height="4" fill="#000000"/> <!-- Eye 2 -->
  <rect x="48" y="70" width="4" height="2" fill="#000000"/> <!-- Mouth -->
  <rect x="45" y="110" width="6" height="8" fill="#8B4513"/> <!-- Leg 1 -->
  <rect x="49" y="110" width="6" height="8" fill="#8B4513"/> <!-- Leg 2 -->
  <rect x="42" y="85" width="4" height="8" fill="#8B4513"/> <!-- Arm 1 -->
  <rect x="54" y="85" width="4" height="8" fill="#8B4513"/> <!-- Arm 2 -->
  
  <!-- Player 2 -->
  <rect x="80" y="90" width="20" height="30" fill="#7CB342"/> <!-- Body -->
  <rect x="82" y="70" width="16" height="20" fill="#FFB74D"/> <!-- Head -->
  <rect x="84" y="75" width="4" height="4" fill="#000000"/> <!-- Eye 1 -->
  <rect x="92" y="75" width="4" height="4" fill="#000000"/> <!-- Eye 2 -->
  <rect x="88" y="80" width="4" height="2" fill="#000000"/> <!-- Mouth -->
  <rect x="85" y="120" width="6" height="8" fill="#7CB342"/> <!-- Leg 1 -->
  <rect x="89" y="120" width="6" height="8" fill="#7CB342"/> <!-- Leg 2 -->
  <rect x="82" y="95" width="4" height="8" fill="#7CB342"/> <!-- Arm 1 -->
  <rect x="94" y="95" width="4" height="8" fill="#7CB342"/> <!-- Arm 2 -->
  
  <!-- Player 3 -->
  <rect x="120" y="85" width="20" height="30" fill="#4FC3F7"/> <!-- Body -->
  <rect x="122" y="65" width="16" height="20" fill="#FFB74D"/> <!-- Head -->
  <rect x="124" y="70" width="4" height="4" fill="#000000"/> <!-- Eye 1 -->
  <rect x="132" y="70" width="4" height="4" fill="#000000"/> <!-- Eye 2 -->
  <rect x="128" y="75" width="4" height="2" fill="#000000"/> <!-- Mouth -->
  <rect x="125" y="115" width="6" height="8" fill="#4FC3F7"/> <!-- Leg 1 -->
  <rect x="129" y="115" width="6" height="8" fill="#4FC3F7"/> <!-- Leg 2 -->
  <rect x="122" y="90" width="4" height="8" fill="#4FC3F7"/> <!-- Arm 1 -->
  <rect x="134" y="90" width="4" height="8" fill="#4FC3F7"/> <!-- Arm 2 -->
  
  <!-- Community connection lines -->
  <line x1="60" y1="95" x2="80" y2="105" stroke="#8B4513" stroke-width="3"/>
  <line x1="100" y1="105" x2="120" y2="100" stroke="#7CB342" stroke-width="3"/>
  <line x1="70" y1="110" x2="110" y2="110" stroke="#4FC3F7" stroke-width="3"/>
  
  <!-- Community symbol -->
  <circle cx="100" cy="140" r="15" fill="#FFD700" stroke="#8B4513" stroke-width="2"/>
  <text x="100" y="145" text-anchor="middle" fill="#8B4513" font-family="Arial" font-size="12" font-weight="bold">SU</text>
</svg> 